<?xml version="1.0" encoding="iso-8859-1"?>
<!-- Uploaded to: SVG Repo, www.svgrepo.com, Generator: SVG Repo Mixer Tools -->
<!DOCTYPE svg PUBLIC "-//W3C//DTD SVG 1.1//EN" "http://www.w3.org/Graphics/SVG/1.1/DTD/svg11.dtd">
<svg fill="green" version="1.1" id="Capa_1" xmlns="http://www.w3.org/2000/svg" xmlns:xlink="http://www.w3.org/1999/xlink" 
	 width="800px" height="800px" viewBox="0 0 579.588 579.589"
	 xml:space="preserve">
<g>
	<path d="M71.374,166.147c-3.06-47.124-9.792-96.084-4.896-143.208c0-0.612,0-0.612,0-1.224c-2.448-5.508,0-14.076,7.956-14.076
		c-9.792,0,9.18-2.448,12.24-2.448c13.464,0,26.928-0.612,40.392-0.612c43.452-0.612,86.904-1.224,130.968-1.836
		c77.112-1.224,154.836-5.508,231.948,0c4.284,0.612,7.345,2.448,8.568,6.732c0,0,0,0,0-0.612c0.612,0.612,0.612,1.224,0.612,1.836
		c3.06,0.612,6.12,2.448,6.731,6.732c4.284,26.928-3.06,58.14-3.06,86.292c0,18.972,14.688,108.324,8.567,113.22
		c1.225-1.224,3.673-0.612,3.673,1.836c0,3.672,0,7.344-0.612,11.016c-0.612,9.18-11.016,12.24-16.524,7.956
		c-7.956,3.672-20.808,3.672-27.54,4.284c-26.928,3.06-54.468,4.896-82.008,5.508c-4.284,0-8.567-2.448-10.404-6.12
		c-1.224-1.836-1.836-4.284-1.836-6.12c0,0,0-0.612-0.611-0.612c-2.448-14.076-3.672-28.764-4.284-42.84
		c0-5.508-1.224-12.24-1.836-18.972c-49.572,38.556-94.248,83.844-136.476,130.356c47.124,46.513,91.188,95.473,137.7,143.208
		c-1.836-22.031-6.12-47.735,1.836-67.932c1.836-4.284,6.732-6.12,11.017-5.508c14.688-6.12,31.823-1.224,47.735-0.612
		c23.868,1.225,47.736,0.612,71.604,3.061c6.12,0.611,7.956,5.508,6.731,9.792c3.673,33.048,3.061,66.708,1.836,99.756
		c-0.611,25.092,5.509,61.812-7.344,84.456c-2.447,4.284-8.567,4.896-12.239,2.447c-72.217,14.688-146.269,4.896-219.097-1.224
		c-61.2-5.508-136.476,17.136-195.228-3.672c-0.612,0-1.224-0.612-1.836-0.612c-4.284,2.448-12.24,0-11.016-6.119
		c10.404-79.561,6.12-163.404,7.956-243.576C74.434,265.292,73.821,215.719,71.374,166.147z"/>
</g>
</svg>